<?xml version="1.0" standalone="no"?>
<!DOCTYPE svg PUBLIC "-//W3C//DTD SVG 20010904//EN"
 "http://www.w3.org/TR/2001/REC-SVG-20010904/DTD/svg10.dtd">
<svg version="1.0" xmlns="http://www.w3.org/2000/svg"
 width="461.000000pt" height="230.000000pt" viewBox="0 0 461.000000 230.000000"
 preserveAspectRatio="xMidYMid meet">

<g transform="translate(0.000000,230.000000) scale(0.100000,-0.100000)"
fill="#000000" stroke="none">
<path d="M0 1505 l0 -795 2305 0 2305 0 0 795 0 795 -2305 0 -2305 0 0 -795z
m4590 0 l0 -765 -2280 0 -2280 0 0 765 0 765 2280 0 2280 0 0 -765z"/>
<path d="M705 2010 c-177 -24 -308 -131 -366 -300 -30 -90 -38 -288 -15 -380
45 -179 160 -301 316 -338 266 -63 496 35 555 236 6 20 3 22 -37 22 -42 0 -45
-2 -66 -45 -41 -84 -148 -137 -280 -137 -197 -2 -312 157 -312 428 0 149 39
264 114 339 62 63 121 85 222 85 146 0 239 -64 268 -182 5 -24 11 -28 41 -28
l35 0 0 150 0 150 -40 0 c-39 0 -40 -1 -40 -35 0 -19 -4 -35 -9 -35 -5 0 -37
13 -72 30 -97 45 -188 56 -314 40z"/>
<path d="M1690 2014 c-136 -23 -214 -55 -285 -117 -93 -81 -145 -225 -145
-401 1 -275 122 -451 350 -507 30 -7 100 -13 155 -13 55 0 125 6 155 13 228
56 349 232 350 507 0 270 -115 442 -335 500 -53 14 -203 25 -245 18z m207
-115 c51 -25 109 -87 135 -146 47 -106 61 -277 33 -408 -40 -188 -138 -275
-309 -275 -205 0 -320 179 -303 469 10 167 59 278 152 343 72 51 205 58 292
17z"/>
<path d="M2745 2010 c-256 -34 -398 -218 -398 -515 0 -299 139 -478 400 -515
102 -15 216 -3 290 30 92 40 168 124 193 209 l9 31 -42 0 c-40 -1 -43 -3 -72
-53 -46 -80 -142 -127 -268 -129 -143 -2 -240 70 -291 217 -23 65 -33 269 -17
346 25 119 93 218 183 265 43 23 191 31 244 14 92 -31 148 -87 160 -162 6 -36
8 -38 45 -38 l39 0 0 150 0 150 -45 0 c-45 0 -45 0 -45 -35 0 -19 -2 -35 -4
-35 -2 0 -32 13 -67 30 -59 27 -171 51 -229 49 -14 -1 -52 -5 -85 -9z"/>
<path d="M3690 2010 c-201 -32 -332 -153 -381 -350 -20 -80 -18 -270 5 -345
41 -139 124 -242 234 -293 88 -40 219 -58 329 -44 116 15 191 43 256 96 117
94 171 226 172 416 0 175 -34 283 -122 380 -53 59 -111 95 -194 121 -70 22
-221 32 -299 19z m247 -116 c115 -56 174 -189 174 -397 0 -281 -107 -427 -312
-427 -180 0 -291 122 -307 340 -14 177 13 318 77 408 77 105 238 139 368 76z"/>
<path d="M540 438 c0 -5 9 -8 20 -8 19 0 20 -7 20 -163 0 -160 -1 -164 -22
-175 -19 -9 -12 -11 42 -11 55 1 61 2 38 11 -26 9 -28 13 -28 68 l0 58 70 4
c60 3 74 8 98 31 23 23 27 36 27 81 0 44 -5 59 -24 80 -13 14 -28 23 -32 20
-5 -3 -9 -1 -9 3 0 5 -45 8 -100 8 -55 0 -100 -3 -100 -7z m220 -38 c14 -14
20 -33 20 -65 0 -67 -23 -85 -105 -85 l-65 0 0 85 0 85 65 0 c52 0 69 -4 85
-20z"/>
<path d="M1630 439 c0 -4 10 -9 23 -11 22 -3 22 -6 25 -165 l2 -161 -27 -10
c-24 -9 -19 -10 37 -11 54 0 61 2 43 11 -22 11 -23 15 -23 170 0 151 1 160 20
165 39 10 19 20 -40 20 -33 0 -60 -4 -60 -8z"/>
<path d="M2580 441 c0 -5 9 -11 20 -14 19 -5 20 -14 20 -165 0 -155 -1 -159
-22 -170 -19 -9 -13 -11 37 -11 52 1 56 2 33 11 l-28 10 0 149 c0 82 4 149 9
149 5 0 55 -72 112 -160 57 -87 110 -159 117 -160 9 0 12 40 12 170 l0 170 25
10 c14 5 25 11 25 13 0 2 -27 4 -60 4 -58 0 -83 -12 -37 -19 21 -3 22 -6 25
-141 1 -79 -1 -137 -7 -137 -5 0 -53 68 -106 150 l-97 150 -39 0 c-21 0 -39
-4 -39 -9z"/>
<path d="M3760 439 c0 -4 11 -10 25 -13 l25 -6 0 -159 0 -159 -27 -10 c-24 -9
-19 -11 37 -11 59 -1 63 1 40 12 -22 11 -25 20 -28 71 -5 92 7 92 101 -2 72
-72 87 -82 117 -82 l35 1 -30 13 c-16 8 -67 52 -113 98 l-83 84 81 70 c45 38
90 73 101 78 31 15 22 23 -26 23 -25 0 -45 -4 -45 -9 0 -4 5 -8 10 -8 24 0 4
-29 -51 -74 -82 -66 -94 -66 -94 4 0 47 3 56 23 65 35 15 27 20 -38 21 -33 0
-60 -2 -60 -7z"/>
</g>
</svg>
